<svg width="1023" height="270" viewBox="0 0 1023 270" fill="none" xmlns="http://www.w3.org/2000/svg">
  <path d="M302.23 137.682V218.364H269.707V34.7684H301.511V104.065H303.128C306.363 96.2956 311.364 90.1697 318.132 85.6874C324.96 81.1453 333.645 78.8743 344.186 78.8743C353.77 78.8743 362.125 80.8764 369.252 84.8806C376.38 88.8848 381.89 94.7417 385.783 102.451C389.737 110.161 391.713 119.574 391.713 130.69V218.364H359.19V135.71C359.19 126.447 356.794 119.245 352.003 114.105C347.271 108.906 340.623 106.306 332.058 106.306C326.308 106.306 321.157 107.561 316.605 110.071C312.113 112.522 308.579 116.077 306.003 120.739C303.488 125.401 302.23 131.048 302.23 137.682Z" fill="url(#paint0_linear_757_3919)" fill-opacity="0.6"/>
  <path d="M418.54 218.364V80.6672H451.063V218.364H418.54ZM434.891 61.1244C429.74 61.1244 425.308 59.4211 421.595 56.0145C417.881 52.5482 416.024 48.3946 416.024 43.5537C416.024 38.653 417.881 34.4994 421.595 31.0929C425.308 27.6266 429.74 25.8934 434.891 25.8934C440.102 25.8934 444.534 27.6266 448.188 31.0929C451.902 34.4994 453.758 38.653 453.758 43.5537C453.758 48.3946 451.902 52.5482 448.188 56.0145C444.534 59.4211 440.102 61.1244 434.891 61.1244Z" fill="url(#paint1_linear_757_3919)" fill-opacity="0.6"/>
  <path d="M478.182 270V80.6672H510.166V103.437H512.053C513.73 100.091 516.095 96.5346 519.15 92.7695C522.205 88.9446 526.337 85.6874 531.548 82.998C536.759 80.2489 543.408 78.8743 551.493 78.8743C562.155 78.8743 571.768 81.5936 580.333 87.0321C588.958 92.4109 595.786 100.389 600.817 110.968C605.908 121.486 608.453 134.395 608.453 149.695C608.453 164.815 605.968 177.664 600.997 188.243C596.025 198.821 589.257 206.889 580.692 212.447C572.127 218.005 562.424 220.784 551.583 220.784C543.677 220.784 537.119 219.469 531.908 216.84C526.697 214.21 522.504 211.043 519.33 207.337C516.215 203.572 513.789 200.016 512.053 196.669H510.705V270H478.182ZM510.076 149.516C510.076 158.42 511.334 166.22 513.849 172.913C516.425 179.607 520.108 184.836 524.9 188.601C529.751 192.307 535.621 194.159 542.509 194.159C549.696 194.159 555.716 192.247 560.567 188.422C565.419 184.537 569.073 179.248 571.528 172.555C574.044 165.801 575.302 158.122 575.302 149.516C575.302 140.969 574.074 133.379 571.618 126.745C569.162 120.112 565.509 114.912 560.657 111.147C555.806 107.382 549.756 105.499 542.509 105.499C535.561 105.499 529.662 107.322 524.81 110.968C519.959 114.613 516.275 119.723 513.76 126.297C511.304 132.871 510.076 140.611 510.076 149.516Z" fill="url(#paint2_linear_757_3919)" fill-opacity="0.6"/>
  <path d="M629.98 270V80.6672H661.964V103.437H663.85C665.527 100.091 667.893 96.5346 670.948 92.7695C674.003 88.9446 678.135 85.6874 683.346 82.998C688.557 80.2489 695.205 78.8743 703.291 78.8743C713.953 78.8743 723.566 81.5936 732.131 87.0321C740.755 92.4109 747.583 100.389 752.615 110.968C757.706 121.486 760.251 134.395 760.251 149.695C760.251 164.815 757.766 177.664 752.794 188.243C747.823 198.821 741.055 206.889 732.49 212.447C723.925 218.005 714.222 220.784 703.381 220.784C695.475 220.784 688.916 219.469 683.706 216.84C678.495 214.21 674.302 211.043 671.128 207.337C668.013 203.572 665.587 200.016 663.85 196.669H662.503V270H629.98ZM661.874 149.516C661.874 158.42 663.132 166.22 665.647 172.913C668.223 179.607 671.906 184.836 676.698 188.601C681.549 192.307 687.419 194.159 694.307 194.159C701.494 194.159 707.514 192.247 712.365 188.422C717.217 184.537 720.87 179.248 723.326 172.555C725.842 165.801 727.099 158.122 727.099 149.516C727.099 140.969 725.872 133.379 723.416 126.745C720.96 120.112 717.307 114.912 712.455 111.147C707.604 107.382 701.554 105.499 694.307 105.499C687.359 105.499 681.459 107.322 676.608 110.968C671.756 114.613 668.073 119.723 665.557 126.297C663.102 132.871 661.874 140.611 661.874 149.516Z" fill="url(#paint3_linear_757_3919)" fill-opacity="0.6"/>
  <path d="M801.812 220.336C796.362 220.336 791.69 218.424 787.797 214.599C783.904 210.774 781.987 206.112 782.047 200.614C781.987 195.235 783.904 190.633 787.797 186.808C791.69 182.983 796.362 181.071 801.812 181.071C807.083 181.071 811.665 182.983 815.558 186.808C819.511 190.633 821.518 195.235 821.578 200.614C821.518 204.259 820.56 207.576 818.703 210.565C816.906 213.553 814.51 215.943 811.515 217.736C808.58 219.469 805.346 220.336 801.812 220.336Z" fill="url(#paint4_linear_757_3919)" fill-opacity="0.6"/>
  <path d="M888.542 221.143C879.797 221.143 871.921 219.589 864.913 216.481C857.965 213.314 852.455 208.652 848.382 202.496C844.369 196.341 842.363 188.751 842.363 179.726C842.363 171.957 843.8 165.532 846.675 160.452C849.55 155.372 853.473 151.308 858.445 148.26C863.416 145.212 869.016 142.912 875.245 141.358C881.534 139.744 888.033 138.579 894.741 137.862C902.827 137.025 909.385 136.278 914.416 135.62C919.448 134.903 923.101 133.827 925.377 132.393C927.713 130.899 928.881 128.598 928.881 125.49V124.952C928.881 118.199 926.875 112.97 922.862 109.264C918.849 105.559 913.069 103.706 905.522 103.706C897.556 103.706 891.237 105.439 886.565 108.906C881.953 112.372 878.839 116.466 877.222 121.187L846.855 116.884C849.251 108.517 853.204 101.525 858.714 95.9071C864.224 90.2295 870.963 85.9862 878.929 83.1773C886.895 80.3087 895.699 78.8743 905.342 78.8743C911.991 78.8743 918.609 79.6513 925.197 81.2051C931.786 82.759 937.805 85.3288 943.256 88.9147C948.706 92.4408 953.079 97.2518 956.373 103.348C959.727 109.444 961.404 117.064 961.404 126.207V218.364H930.139V199.448H929.061C927.084 203.273 924.299 206.859 920.705 210.206C917.172 213.493 912.709 216.153 907.319 218.185C901.988 220.157 895.729 221.143 888.542 221.143ZM896.987 197.297C903.516 197.297 909.176 196.012 913.967 193.442C918.759 190.813 922.442 187.346 925.018 183.043C927.653 178.74 928.971 174.049 928.971 168.969V152.743C927.953 153.579 926.216 154.356 923.76 155.074C921.364 155.791 918.669 156.418 915.674 156.956C912.679 157.494 909.715 157.972 906.78 158.39C903.845 158.809 901.299 159.167 899.143 159.466C894.292 160.124 889.949 161.199 886.116 162.694C882.283 164.188 879.258 166.279 877.042 168.969C874.826 171.598 873.718 175.005 873.718 179.188C873.718 185.165 875.904 189.677 880.276 192.725C884.649 195.773 890.219 197.297 896.987 197.297Z" fill="url(#paint5_linear_757_3919)" fill-opacity="0.6"/>
  <path d="M987.782 218.364V80.6672H1020.3V218.364H987.782ZM1004.13 61.1244C998.982 61.1244 994.55 59.4211 990.836 56.0145C987.123 52.5482 985.266 48.3946 985.266 43.5537C985.266 38.653 987.123 34.4994 990.836 31.0929C994.55 27.6266 998.982 25.8934 1004.13 25.8934C1009.34 25.8934 1013.78 27.6266 1017.43 31.0929C1021.14 34.4994 1023 38.653 1023 43.5537C1023 48.3946 1021.14 52.5482 1017.43 56.0145C1013.78 59.4211 1009.34 61.1244 1004.13 61.1244Z" fill="url(#paint6_linear_757_3919)" fill-opacity="0.6"/>
 
  <path fill-rule="evenodd" clip-rule="evenodd" d="M252.996 126.222C252.996 195.932 196.361 252.444 126.498 252.444C56.6352 252.444 0 195.932 0 126.222C0 56.5114 56.6352 0 126.498 0C196.361 0 252.996 56.5114 252.996 126.222ZM200.623 147.401C200.798 170.307 194.227 188.229 180.909 201.168C167.591 213.932 149.279 220.314 125.972 220.314C112.129 220.314 99.3367 217.167 87.5959 210.872C76.0303 204.578 66.8305 195.66 59.9963 184.12C53.1621 172.58 49.745 159.291 49.745 144.254V105.961C49.745 91.0983 52.9869 77.8969 59.4706 66.3566C66.1295 54.8163 75.1542 45.8988 86.5445 39.6041C98.11 33.1346 110.99 29.8998 125.184 29.8998C148.49 29.8998 166.715 36.2819 179.857 49.0462C193.175 61.6356 199.922 79.4706 200.097 102.551H152.783C152.608 93.6337 150.155 86.727 145.424 81.8311C140.867 76.9352 134.121 74.4873 125.184 74.4873C117.123 74.4873 110.464 77.0226 105.207 82.0934C99.95 87.1641 97.3214 94.3331 97.3214 103.6V146.352C97.3214 155.619 100.038 162.875 105.47 168.121C111.077 173.192 117.912 175.727 125.972 175.727C144.372 175.727 153.572 166.285 153.572 147.401H200.623ZM126.498 116.386C135.571 116.386 142.926 109.047 142.926 99.9939C142.926 90.9406 135.571 83.6015 126.498 83.6015C117.425 83.6015 110.07 90.9406 110.07 99.9939C110.07 109.047 117.425 116.386 126.498 116.386Z" fill="url(#diagonalGradient)"/>
  <defs>
    <linearGradient id="diagonalGradient" x1="0%" y1="0%" x2="100%" y2="100%">
        <stop offset="0%" style="stop-color:#1b948e"/>
        <stop offset="100%" style="stop-color:#26ddd2"/>
    </linearGradient>
    <linearGradient id="paint0_linear_757_3919" x1="511.5" y1="0" x2="511.5" y2="270" gradientUnits="userSpaceOnUse">
      <stop stop-opacity="0.53" style="stop-color:#FFFFFF"/>
      <stop offset="1" style="stop-color:#FFFFFF"/>
    </linearGradient>
    <linearGradient id="paint1_linear_757_3919" x1="511.5" y1="0" x2="511.5" y2="270" gradientUnits="userSpaceOnUse">
      <stop stop-opacity="0.53" style="stop-color:#FFFFFF"/>
      <stop offset="1" style="stop-color:#FFFFFF"/>
    </linearGradient>
    <linearGradient id="paint2_linear_757_3919" x1="511.5" y1="0" x2="511.5" y2="270" gradientUnits="userSpaceOnUse">
      <stop stop-opacity="0.53" style="stop-color:#FFFFFF"/>
      <stop offset="1" style="stop-color:#FFFFFF"/>
    </linearGradient>
    <linearGradient id="paint3_linear_757_3919" x1="511.5" y1="0" x2="511.5" y2="270" gradientUnits="userSpaceOnUse">
      <stop stop-opacity="0.53" style="stop-color:#FFFFFF"/>
      <stop offset="1" style="stop-color:#FFFFFF"/>
    </linearGradient>
    <linearGradient id="paint4_linear_757_3919" x1="511.5" y1="0" x2="511.5" y2="270" gradientUnits="userSpaceOnUse">
      <stop stop-opacity="0.53" style="stop-color:#FFFFFF" />
      <stop offset="1" style="stop-color:#FFFFFF" />
    </linearGradient>
    <linearGradient id="paint5_linear_757_3919" x1="511.5" y1="0" x2="511.5" y2="270" gradientUnits="userSpaceOnUse">
      <stop stop-opacity="0.53" style="stop-color:#FFFFFF"/>
      <stop offset="1" style="stop-color:#FFFFFF"/>
    </linearGradient>
    <linearGradient id="paint6_linear_757_3919" x1="511.5" y1="0" x2="511.5" y2="270" gradientUnits="userSpaceOnUse">
      <stop stop-opacity="0.53" style="stop-color:#FFFFFF"/>
      <stop offset="1" style="stop-color:#FFFFFF"/>
    </linearGradient>
  </defs>
</svg>