<svg width="700" height="320" viewBox="0 0 700 320" fill="none" xmlns="http://www.w3.org/2000/svg">
<g clip-path="url(#clip0_39_1471)">
<rect width="700" height="320" rx="16" fill="#f0feff"/>
<g opacity="0.8" filter="url(#filter0_f_39_1471)">
<circle cx="660" cy="-60" r="160" fill="#00eaff" fill-opacity="0.31"/>
</g>
<g opacity="0.8" filter="url(#filter1_f_39_1471)">
<circle cx="20" cy="213" r="160" fill="#1bdbd1" fill-opacity="0.33"/>
</g>
<g opacity="0.8" filter="url(#filter2_f_39_1471)">
<circle cx="660" cy="480" r="160" fill="#10a4b4" fill-opacity="0.52"/>
</g>
<g opacity="0.8" filter="url(#filter3_f_39_1471)">
<circle cx="20" cy="413" r="160" fill="#00ffe5" fill-opacity="0.22"/>
</g>
<path fill-rule="evenodd" clip-rule="evenodd" transform="translate(239, 49) scale(.88)" d="M252.996 126.222C252.996 195.932 196.361 252.444 126.498 252.444C56.6352 252.444 0 195.932 0 126.222C0 56.5114 56.6352 0 126.498 0C196.361 0 252.996 56.5114 252.996 126.222ZM200.623 147.401C200.798 170.307 194.227 188.229 180.909 201.168C167.591 213.932 149.279 220.314 125.972 220.314C112.129 220.314 99.3367 217.167 87.5959 210.872C76.0303 204.578 66.8305 195.66 59.9963 184.12C53.1621 172.58 49.745 159.291 49.745 144.254V105.961C49.745 91.0983 52.9869 77.8969 59.4706 66.3566C66.1295 54.8163 75.1542 45.8988 86.5445 39.6041C98.11 33.1346 110.99 29.8998 125.184 29.8998C148.49 29.8998 166.715 36.2819 179.857 49.0462C193.175 61.6356 199.922 79.4706 200.097 102.551H152.783C152.608 93.6337 150.155 86.727 145.424 81.8311C140.867 76.9352 134.121 74.4873 125.184 74.4873C117.123 74.4873 110.464 77.0226 105.207 82.0934C99.95 87.1641 97.3214 94.3331 97.3214 103.6V146.352C97.3214 155.619 100.038 162.875 105.47 168.121C111.077 173.192 117.912 175.727 125.972 175.727C144.372 175.727 153.572 166.285 153.572 147.401H200.623ZM126.498 116.386C135.571 116.386 142.926 109.047 142.926 99.9939C142.926 90.9406 135.571 83.6015 126.498 83.6015C117.425 83.6015 110.07 90.9406 110.07 99.9939C110.07 109.047 117.425 116.386 126.498 116.386Z" fill="url(#diagonalGradient)"/>
<circle opacity="0.5" cx="350" cy="160" r="111" stroke="url(#paint4_radial_39_1471)"/>
<circle opacity="0.5" cx="350" cy="160" r="79" stroke="url(#paint5_radial_39_1471)"/>
<path opacity="0.4" d="M511 321L189 -1" stroke="url(#paint6_radial_39_1471)"/>
<path opacity="0.6" d="M189 321L511 -1" stroke="url(#paint7_radial_39_1471)"/>
<path opacity="0.4" d="M0 160H700" stroke="url(#paint8_radial_39_1471)"/>
<path opacity="0.2" d="M271 0L271 320" stroke="url(#paint9_radial_39_1471)" stroke-dasharray="4 4"/>
<path opacity="0.2" d="M461 0L461 320" stroke="url(#paint10_radial_39_1471)" stroke-dasharray="4 4"/>
<path opacity="0.4" d="M350 0L350 320" stroke="url(#paint11_radial_39_1471)"/>
<path opacity="0.2" d="M429 0L429 320" stroke="url(#paint12_radial_39_1471)" stroke-dasharray="4 4"/>
<path opacity="0.2" d="M239 0L239 320" stroke="url(#paint13_radial_39_1471)" stroke-dasharray="4 4"/>
<path opacity="0.2" d="M0 50H700" stroke="url(#paint14_radial_39_1471)" stroke-dasharray="4 4"/>
<path opacity="0.2" d="M0 82H700" stroke="url(#paint15_radial_39_1471)" stroke-dasharray="4 4"/>
<path opacity="0.2" d="M0 271H700" stroke="url(#paint16_radial_39_1471)" stroke-dasharray="4 4"/>
<path opacity="0.2" d="M0 239H700" stroke="url(#paint17_radial_39_1471)" stroke-dasharray="4 4"/>
</g>
<defs>
<linearGradient id="diagonalGradient" x1="0%" y1="0%" x2="100%" y2="100%">
        <stop offset="0%" style="stop-color:#26ddd2"/>
        <stop offset="100%" style="stop-color:#25c2ba"/>
    </linearGradient>
    <filter id="filter0_f_39_1471" x="260" y="-460" width="800" height="800" filterUnits="userSpaceOnUse" color-interpolation-filters="sRGB">
    <feFlood flood-opacity="0" result="BackgroundImageFix"/>
    <feBlend mode="normal" in="SourceGraphic" in2="BackgroundImageFix" result="shape"/>
    <feGaussianBlur stdDeviation="120" result="effect1_foregroundBlur_39_1471"/>
    </filter>
    <filter id="filter1_f_39_1471" x="-380" y="-187" width="800" height="800" filterUnits="userSpaceOnUse" color-interpolation-filters="sRGB">
    <feFlood flood-opacity="0" result="BackgroundImageFix"/>
    <feBlend mode="normal" in="SourceGraphic" in2="BackgroundImageFix" result="shape"/>
    <feGaussianBlur stdDeviation="120" result="effect1_foregroundBlur_39_1471"/>
    </filter>
    <filter id="filter2_f_39_1471" x="260" y="80" width="800" height="800" filterUnits="userSpaceOnUse" color-interpolation-filters="sRGB">
    <feFlood flood-opacity="0" result="BackgroundImageFix"/>
    <feBlend mode="normal" in="SourceGraphic" in2="BackgroundImageFix" result="shape"/>
    <feGaussianBlur stdDeviation="120" result="effect1_foregroundBlur_39_1471"/>
    </filter>
    <filter id="filter3_f_39_1471" x="-380" y="13" width="800" height="800" filterUnits="userSpaceOnUse" color-interpolation-filters="sRGB">
    <feFlood flood-opacity="0" result="BackgroundImageFix"/>
    <feBlend mode="normal" in="SourceGraphic" in2="BackgroundImageFix" result="shape"/>
    <feGaussianBlur stdDeviation="120" result="effect1_foregroundBlur_39_1471"/>
    </filter>
    <linearGradient id="paint0_linear_39_1471" x1="1.04308e-05" y1="320" x2="710.784" y2="26.0793" gradientUnits="userSpaceOnUse">
    <stop stop-color="#00f3e7" stop-opacity="0.09"/>
    <stop offset="0.729167" stop-color="#118695" stop-opacity="0.08"/>
    </linearGradient>
    <radialGradient id="paint1_radial_39_1471" cx="0" cy="0" r="1" gradientUnits="userSpaceOnUse" gradientTransform="translate(240 270) rotate(-47.3279) scale(870.459 870.459)">
    <stop stop-color="#AA82FF"/>
    <stop offset="0.168642" stop-color="#AA82FF"/>
    <stop offset="0.386895" stop-color="#7E42FF" stop-opacity="0"/>
    <stop offset="1" stop-color="#7E42FF" stop-opacity="0"/>
    </radialGradient>
    <radialGradient id="paint2_radial_39_1471" cx="0" cy="0" r="1" gradientUnits="userSpaceOnUse" gradientTransform="translate(250 255) rotate(-41.7108) scale(308.099 308.099)">
    <stop offset="0.218594" stop-color="#FF7246" stop-opacity="0.73"/>
    <stop offset="1" stop-color="#A073FF" stop-opacity="0"/>
    </radialGradient>
    <linearGradient id="paint3_linear_39_1471" x1="384" y1="144" x2="252" y2="270" gradientUnits="userSpaceOnUse">
    <stop offset="0.0717997" stop-color="#672191"/>
    <stop offset="0.45027" stop-color="#C963CB"/>
    <stop offset="0.675676" stop-color="#FB695F"/>
    <stop offset="1" stop-color="#EB0331"/>
    </linearGradient>
    <radialGradient id="paint4_radial_39_1471" cx="0" cy="0" r="1" gradientUnits="userSpaceOnUse" gradientTransform="translate(263 76) rotate(47.663) scale(243.508)">
    <stop stop-color="#0091ff"/>
    <stop offset="1" stop-color="#07cda5"/>
    </radialGradient>
    <radialGradient id="paint5_radial_39_1471" cx="0" cy="0" r="1" gradientUnits="userSpaceOnUse" gradientTransform="translate(288.081 100.216) rotate(47.663) scale(173.307)">
    <stop stop-color="#22fd85"/>
    <stop offset="1" stop-color="#ddfffe" stop-opacity="0.47"/>
    </radialGradient>
    <radialGradient id="paint6_radial_39_1471" cx="0" cy="0" r="1" gradientUnits="userSpaceOnUse" gradientTransform="translate(350 160) rotate(-135) scale(258.996 182)">
    <stop offset="0.0989011" stop-color="#26ddd2"/>
    <stop offset="1" stop-color="#75d6ff" stop-opacity="0"/>
    </radialGradient>
    <radialGradient id="paint7_radial_39_1471" cx="0" cy="0" r="1" gradientUnits="userSpaceOnUse" gradientTransform="translate(350 160) rotate(-45) scale(258.996 182)">
    <stop offset="0.0989011" stop-color="#26ddd2"/>
    <stop offset="1" stop-color="#75d6ff" stop-opacity="0"/>
    </radialGradient>
    <radialGradient id="paint8_radial_39_1471" cx="0" cy="0" r="1" gradientUnits="userSpaceOnUse" gradientTransform="translate(350 160) scale(398.125 182)">
    <stop offset="0.0989011" stop-color="#26ddd2"/>
    <stop offset="1" stop-color="#75d6ff" stop-opacity="0"/>
    </radialGradient>
    <radialGradient id="paint9_radial_39_1471" cx="0" cy="0" r="1" gradientUnits="userSpaceOnUse" gradientTransform="translate(271 160) rotate(90) scale(182 182)">
    <stop offset="0.348958" stop-color="#297d7a"/>
    <stop offset="0.880208" stop-color="#397572" stop-opacity="0"/>
    </radialGradient>
    <radialGradient id="paint10_radial_39_1471" cx="0" cy="0" r="1" gradientUnits="userSpaceOnUse" gradientTransform="translate(461 160) rotate(90) scale(182 182)">
    <stop offset="0.348958" stop-color="#297d7a"/>
    <stop offset="0.880208" stop-color="#397572" stop-opacity="0"/>
    </radialGradient>
    <radialGradient id="paint11_radial_39_1471" cx="0" cy="0" r="1" gradientUnits="userSpaceOnUse" gradientTransform="translate(350 160) rotate(90) scale(182 182)">
    <stop offset="0.0989011" stop-color="#26ddd2"/>
    <stop offset="1" stop-color="#75d6ff" stop-opacity="0"/>
    </radialGradient>
    <radialGradient id="paint12_radial_39_1471" cx="0" cy="0" r="1" gradientUnits="userSpaceOnUse" gradientTransform="translate(429 160) rotate(90) scale(182 182)">
    <stop offset="0.348958" stop-color="#297d7a"/>
    <stop offset="0.880208" stop-color="#397572" stop-opacity="0"/>
    </radialGradient>
    <radialGradient id="paint13_radial_39_1471" cx="0" cy="0" r="1" gradientUnits="userSpaceOnUse" gradientTransform="translate(239 160) rotate(90) scale(182 182)">
    <stop offset="0.348958" stop-color="#297d7a"/>
    <stop offset="0.880208" stop-color="#397572" stop-opacity="0"/>
    </radialGradient>
    <radialGradient id="paint14_radial_39_1471" cx="0" cy="0" r="1" gradientUnits="userSpaceOnUse" gradientTransform="translate(350 50) scale(398.125 182)">
    <stop offset="0.348958" stop-color="#297d7a"/>
    <stop offset="0.880208" stop-color="#397572" stop-opacity="0"/>
    </radialGradient>
    <radialGradient id="paint15_radial_39_1471" cx="0" cy="0" r="1" gradientUnits="userSpaceOnUse" gradientTransform="translate(350 82) scale(398.125 182)">
    <stop offset="0.348958" stop-color="#297d7a"/>
    <stop offset="0.880208" stop-color="#397572" stop-opacity="0"/>
    </radialGradient>
    <radialGradient id="paint16_radial_39_1471" cx="0" cy="0" r="1" gradientUnits="userSpaceOnUse" gradientTransform="translate(350 271) scale(398.125 182)">
    <stop offset="0.348958" stop-color="#297d7a"/>
    <stop offset="0.880208" stop-color="#397572" stop-opacity="0"/>
    </radialGradient>
    <radialGradient id="paint17_radial_39_1471" cx="0" cy="0" r="1" gradientUnits="userSpaceOnUse" gradientTransform="translate(350 239) scale(398.125 182)">
    <stop offset="0.348958" stop-color="#297d7a"/>
    <stop offset="0.880208" stop-color="#397572" stop-opacity="0"/>
    </radialGradient>
    <clipPath id="clip0_39_1471">
    <rect width="700" height="320" rx="16" fill="white"/>
    </clipPath>
</defs>
</svg>
